<svg width="176" height="176" viewBox="0 0 176 176" fill="none" xmlns="http://www.w3.org/2000/svg">
<rect x="7.69321e-06" y="176" width="176" height="176" rx="88" transform="rotate(-90 7.69321e-06 176)" fill="white"/>
<path d="M36.4764 55.3884L28.7349 50.2383L28.0777 52.0841L27.1017 51.4348L27.578 48.7457L28.1483 47.8885L37.38 54.03L36.4764 55.3884Z" fill="#136C4E"/>
<path d="M42.61 46.8342C41.9724 47.5949 41.2443 48.0939 40.4256 48.3309C39.5988 48.5611 38.7356 48.5472 37.8358 48.2892C36.928 48.0243 36.037 47.5256 35.1629 46.7931C34.2888 46.0605 33.6461 45.2738 33.2347 44.433C32.8152 43.5855 32.6506 42.7379 32.7408 41.8904C32.823 41.0362 33.1829 40.2286 33.8205 39.4678C34.4513 38.7151 35.1767 38.2277 35.9967 38.0056C36.8153 37.7685 37.6786 37.7824 38.5864 38.0473C39.4862 38.3053 40.3731 38.8006 41.2472 39.5332C42.1213 40.2658 42.7681 41.0558 43.1876 41.9034C43.599 42.7442 43.7636 43.5917 43.6814 44.446C43.598 45.2854 43.2408 46.0815 42.61 46.8342ZM41.5194 45.9408C41.9128 45.4713 42.1252 44.9467 42.1565 44.3667C42.1879 43.7868 42.0415 43.1887 41.7174 42.5726C41.4 41.9484 40.8974 41.3481 40.2094 40.7715C39.5215 40.195 38.8425 39.805 38.1724 39.6017C37.5091 39.3903 36.8988 39.3541 36.3413 39.4931C35.7758 39.6254 35.2963 39.9263 34.9029 40.3957C34.5163 40.857 34.3039 41.3817 34.2657 41.9697C34.2263 42.5429 34.3652 43.1416 34.6826 43.7658C35.0067 44.3819 35.5127 44.9782 36.2007 45.5548C36.8886 46.1313 37.5643 46.5253 38.2275 46.7367C38.8976 46.9401 39.5154 46.9756 40.0809 46.8433C40.6532 46.703 41.1327 46.4021 41.5194 45.9408Z" fill="#136C4E"/>
<path d="M50.2651 39.5421C49.4872 40.1587 48.6734 40.5006 47.8238 40.5676C46.9676 40.6265 46.1249 40.4388 45.2956 40.0046C44.4598 39.5621 43.6877 38.894 42.9793 38.0003C42.2708 37.1065 41.7999 36.2064 41.5665 35.2999C41.3266 34.3852 41.3362 33.5218 41.5955 32.7099C41.8482 31.8898 42.3636 31.1714 43.1415 30.5548C43.9111 29.9448 44.7199 29.6136 45.5678 29.5614C46.4175 29.4943 47.2602 29.682 48.096 30.1244C48.9252 30.5586 49.6941 31.2226 50.4025 32.1163C51.1109 33.0101 51.5851 33.9144 51.8251 34.8291C52.0585 35.7356 52.0488 36.5989 51.7961 37.4191C51.5451 38.2244 51.0348 38.9321 50.2651 39.5421ZM49.377 38.4472C49.857 38.0667 50.1708 37.5956 50.3185 37.0339C50.4661 36.4722 50.4434 35.8569 50.2501 35.1881C50.0652 34.5128 49.6939 33.8234 49.1363 33.1199C48.5788 32.4165 47.9923 31.8977 47.377 31.5634C46.77 31.2226 46.1795 31.0641 45.6055 31.0879C45.0249 31.1034 44.4946 31.3014 44.0146 31.6818C43.5429 32.0557 43.229 32.5268 43.0731 33.0951C42.9189 33.6485 42.9343 34.2629 43.1192 34.9383C43.3125 35.6071 43.6879 36.2932 44.2454 36.9966C44.803 37.7001 45.3853 38.2222 45.9923 38.563C46.6076 38.8973 47.2056 39.0567 47.7861 39.0411C48.375 39.019 48.9053 38.8211 49.377 38.4472Z" fill="#136C4E"/>
<path d="M60.0177 33.4771L61.0653 20.7337L62.4846 20.0668L61.4227 32.8169L60.0177 33.4771ZM66.6645 30.5638C66.2249 30.7704 65.7811 30.8564 65.3331 30.8219C64.8852 30.7873 64.4708 30.6379 64.0899 30.3735C63.7044 30.0995 63.395 29.7141 63.1614 29.2171C62.9189 28.701 62.8175 28.212 62.8571 27.75C62.8967 27.288 63.0461 26.8736 63.3055 26.5067C63.5648 26.1398 63.9143 25.8531 64.3539 25.6465C64.8031 25.4354 65.2469 25.3494 65.6853 25.3884C66.1332 25.423 66.5476 25.5724 66.9286 25.8368C67.3095 26.1012 67.6212 26.4914 67.8637 27.0075C68.0972 27.5045 68.1964 27.9888 68.1613 28.4603C68.1217 28.9223 67.9723 29.3367 67.7129 29.7036C67.4536 30.0705 67.1042 30.3572 66.6645 30.5638ZM66.1517 29.5097C66.3715 29.4064 66.5427 29.2617 66.6654 29.0758C66.7975 28.8853 66.8691 28.665 66.8799 28.4149C66.8958 28.1508 66.8296 27.861 66.6814 27.5456C66.5332 27.2302 66.3594 26.9968 66.1599 26.8455C65.956 26.6847 65.7385 26.5943 65.5075 26.5745C65.2861 26.5502 65.0655 26.5897 64.8457 26.693C64.6354 26.7918 64.4642 26.9365 64.332 27.1269C64.1998 27.3174 64.1305 27.5425 64.1242 27.8021C64.1134 28.0522 64.1821 28.335 64.3303 28.6504C64.4785 28.9658 64.6545 29.2039 64.8585 29.3648C65.0579 29.5161 65.2731 29.6016 65.5041 29.6214C65.7351 29.6412 65.951 29.604 66.1517 29.5097ZM58.2412 27.8713C57.8015 28.0779 57.353 28.1661 56.8955 28.1361C56.4475 28.1015 56.0331 27.9521 55.6522 27.6877C55.2668 27.4138 54.955 27.0235 54.717 26.517C54.479 26.0104 54.3798 25.5262 54.4194 25.0642C54.459 24.6022 54.6085 24.1878 54.8678 23.8209C55.1366 23.4495 55.4957 23.1583 55.9449 22.9472C56.3845 22.7407 56.8283 22.6546 57.2763 22.6892C57.7242 22.7237 58.1338 22.8754 58.5052 23.1443C58.8861 23.4087 59.1956 23.7941 59.4336 24.3007C59.6716 24.8072 59.7731 25.2963 59.738 25.7678C59.7079 26.2253 59.5585 26.6397 59.2896 27.0111C59.0303 27.378 58.6808 27.6647 58.2412 27.8713ZM57.7283 26.8171C57.9481 26.7138 58.1194 26.5692 58.242 26.3832C58.3742 26.1928 58.4457 25.9725 58.4565 25.7224C58.4629 25.4627 58.3919 25.1752 58.2437 24.8598C58.0955 24.5444 57.9194 24.3063 57.7155 24.1454C57.5116 23.9846 57.2941 23.8942 57.0631 23.8744C56.8417 23.8501 56.6258 23.8874 56.4156 23.9862C56.2149 24.0805 56.0436 24.2251 55.9019 24.4201C55.7697 24.6105 55.6957 24.8378 55.6798 25.102C55.6734 25.3617 55.7444 25.6492 55.8926 25.9646C56.0363 26.2704 56.2101 26.5038 56.4141 26.6646C56.6275 26.821 56.8498 26.9091 57.0808 26.9289C57.3118 26.9487 57.5276 26.9115 57.7283 26.8171Z" fill="#136C4E"/>
<path d="M77.5195 29.4305L76.2576 18.4145L80.0188 17.9837C80.8896 17.8839 81.6251 17.9485 82.2253 18.1774C82.8242 18.3957 83.289 18.7411 83.6194 19.2134C83.9592 19.6741 84.1645 20.2139 84.2354 20.8329C84.3051 21.4414 84.2324 22.013 84.0173 22.5479C83.8115 23.071 83.4428 23.5172 82.9111 23.8863C82.3782 24.245 81.6659 24.4754 80.7741 24.5775L78.5867 24.8281L79.0932 29.2502L77.5195 29.4305ZM78.4371 23.5219L80.5616 23.2786C81.3799 23.1848 81.9417 22.9398 82.2471 22.5434C82.5617 22.1353 82.6842 21.6271 82.6145 21.0186C82.5424 20.3891 82.3081 19.9217 81.9118 19.6163C81.5259 19.3097 80.9238 19.2033 80.1055 19.2971L77.981 19.5404L78.4371 23.5219Z" fill="#136C4E"/>
<path d="M91.151 28.5921L92.4137 17.5762L96.1433 18.0037C97.0141 18.1035 97.7107 18.3322 98.233 18.6897C98.7554 19.0472 99.1195 19.4875 99.3252 20.0106C99.5427 20.5245 99.6159 21.0909 99.545 21.7099C99.4777 22.2974 99.2787 22.8273 98.9482 23.2997C98.6189 23.7615 98.1536 24.112 97.5522 24.3514C96.9625 24.5814 96.227 24.6459 95.3457 24.5449L93.237 24.3032L92.7247 28.7725L91.151 28.5921ZM96.9265 29.2541L95.1269 24.0893L96.858 24.2877L98.7677 29.4651L96.9265 29.2541ZM93.3741 23.1071L95.4199 23.3416C96.1962 23.4306 96.7896 23.3073 97.2001 22.9717C97.6118 22.6256 97.8519 22.1536 97.9205 21.5556C97.9902 20.9471 97.8672 20.4441 97.5514 20.0465C97.2356 19.6489 96.6737 19.4038 95.8659 19.3112L93.8358 19.0785L93.3741 23.1071Z" fill="#136C4E"/>
<path d="M104.621 30.8593L108.342 20.4146L114.923 22.7593L114.487 23.9828L109.398 22.1698L108.208 25.5121L112.848 27.1656L112.423 28.3593L107.782 26.7058L106.549 30.1675L111.637 31.9805L111.201 33.204L104.621 30.8593Z" fill="#136C4E"/>
<path d="M117.268 35.9364L123.585 26.8237L125.121 27.8885L123.938 36.1848L131.291 32.1659L132.841 33.2397L126.524 42.3524L125.222 41.45L129.96 34.6155L123.281 38.2161L122.279 37.5212L123.298 30.0173L118.57 36.8388L117.268 35.9364Z" fill="#136C4E"/>
<path d="M131.356 47.196L139.517 39.69L140.589 40.8558L132.428 48.3619L131.356 47.196Z" fill="#136C4E"/>
<path d="M138.822 57.2128C138.413 56.547 138.173 55.8641 138.102 55.1639C138.04 54.4582 138.179 53.7776 138.52 53.1219C138.875 52.4698 139.476 51.8838 140.321 51.364L146.232 47.7312L147.062 49.0807L141.137 52.7218C140.571 53.0702 140.161 53.4522 139.908 53.8678C139.664 54.2779 139.555 54.7047 139.579 55.1481C139.619 55.5951 139.776 56.0435 140.053 56.4933C140.335 56.9521 140.664 57.2954 141.039 57.5233C141.424 57.7456 141.851 57.8361 142.322 57.7948C142.807 57.7571 143.332 57.564 143.899 57.2156L149.824 53.5746L150.653 54.9241L144.742 58.5569C143.896 59.0766 143.1 59.3432 142.352 59.3566C141.613 59.3645 140.94 59.177 140.333 58.7941C139.735 58.4056 139.231 57.8785 138.822 57.2128Z" fill="#136C4E"/>
<path d="M143.906 66.2878L154.562 63.2222L155.079 65.0185L148.916 70.6977L157.155 72.234L157.676 74.0455L147.02 77.1111L146.582 75.5888L154.574 73.2896L147.124 71.8563L146.786 70.6842L152.321 65.5153L144.344 67.8101L143.906 66.2878Z" fill="#136C4E"/>
<path d="M145.213 99.8701L151.734 97.0241L151.453 98.824L144.928 101.701L145.213 99.8701ZM147.03 97.2679C147.195 96.2141 147.575 95.3222 148.169 94.5921C148.775 93.8636 149.536 93.3358 150.453 93.0086C151.378 92.6935 152.405 92.6239 153.531 92.7998C154.648 92.9741 155.593 93.3515 156.369 93.932C157.152 94.5247 157.722 95.2601 158.076 96.1384C158.431 97.0167 158.526 97.9828 158.361 99.0366C158.194 100.111 157.807 101.013 157.202 101.741C156.595 102.48 155.829 103.002 154.905 103.307C153.99 103.623 152.974 103.695 151.858 103.52C150.731 103.345 149.775 102.965 148.989 102.383C148.213 101.813 147.648 101.084 147.295 100.195C146.951 99.3183 146.863 98.3426 147.03 97.2679ZM148.421 97.501C148.304 98.2522 148.373 98.9364 148.63 99.5536C148.886 100.171 149.308 100.686 149.895 101.098C150.483 101.51 151.22 101.786 152.107 101.924C152.994 102.062 153.78 102.025 154.465 101.811C155.151 101.598 155.704 101.235 156.126 100.724C156.558 100.214 156.833 99.5836 156.95 98.8324C157.069 98.0707 157.001 97.3813 156.744 96.7642C156.498 96.1486 156.081 95.6347 155.494 95.2223C154.906 94.81 154.169 94.5346 153.282 94.3962C152.395 94.2577 151.609 94.2953 150.924 94.509C150.239 94.7227 149.68 95.0843 149.248 95.594C148.815 96.1037 148.54 96.7394 148.421 97.501Z" fill="#136C4E"/>
<path d="M142.538 112.726C142.856 112.012 143.283 111.428 143.821 110.973C144.368 110.523 145.008 110.253 145.741 110.164C146.48 110.088 147.303 110.252 148.21 110.655L154.549 113.476L153.905 114.923L147.552 112.096C146.944 111.825 146.397 111.704 145.911 111.73C145.435 111.761 145.021 111.912 144.669 112.183C144.323 112.468 144.042 112.852 143.828 113.334C143.609 113.826 143.512 114.292 143.536 114.73C143.57 115.173 143.737 115.577 144.037 115.941C144.343 116.32 144.799 116.645 145.407 116.915L151.76 119.742L151.116 121.189L144.778 118.369C143.871 117.965 143.2 117.459 142.766 116.85C142.342 116.245 142.116 115.584 142.088 114.866C142.071 114.153 142.22 113.44 142.538 112.726Z" fill="#136C4E"/>
<path d="M138.258 121.453L144.439 131.518L143.369 132.874L132.154 129.186L133.194 127.868L142.417 131.012L137.238 122.746L138.258 121.453ZM139.271 124.593L139.991 125.726L136.762 129.817L135.492 129.38L139.271 124.593Z" fill="#136C4E"/>
<path d="M127.593 133.521L134.454 142.231L133.21 143.211L127.123 135.484L123.141 138.621L122.367 137.638L127.593 133.521Z" fill="#136C4E"/>
<path d="M117.039 140.863L122.248 150.652L120.849 151.396L115.641 141.608L117.039 140.863Z" fill="#136C4E"/>
<path d="M106.943 145.303L109.869 154.645L112.998 153.665L113.387 154.904L105.602 157.343L105.214 156.103L108.358 155.118L105.432 145.777L106.943 145.303Z" fill="#136C4E"/>
<path d="M93.3973 148.132L93.7076 152.238L97.8813 158.913L96.0965 159.047L92.7803 153.42L93.2067 153.388L90.8051 159.447L89.0361 159.581L92.1281 152.358L91.8179 148.251L93.3973 148.132Z" fill="#136C4E"/>
<path d="M74.7729 147.131L67.5169 156.451L65.8725 155.925L65.389 144.128L66.9882 144.64L67.2815 154.38L73.2039 146.629L74.7729 147.131ZM72.1879 149.181L71.3793 150.253L66.4158 148.665L66.3795 147.322L72.1879 149.181Z" fill="#136C4E"/>
<path d="M56.7519 139.35C57.4353 139.771 57.9629 140.264 58.3349 140.828C58.7013 141.401 58.8899 142.001 58.9007 142.627C58.9115 143.254 58.7313 143.869 58.3603 144.471L56.9442 143.599C57.1546 143.257 57.2675 142.893 57.2829 142.505C57.2928 142.127 57.202 141.761 57.0105 141.407C56.8045 141.057 56.4857 140.749 56.0541 140.483C55.6675 140.245 55.3005 140.106 54.9533 140.066C54.606 140.025 54.294 140.069 54.0172 140.196C53.7259 140.327 53.4916 140.536 53.3144 140.824C53.1095 141.156 53.017 141.478 53.0369 141.787C53.0568 142.097 53.1556 142.4 53.3333 142.696C53.5054 143 53.7246 143.309 53.9908 143.622C54.257 143.934 54.5402 144.27 54.8403 144.628C55.4225 145.334 55.7816 145.99 55.9176 146.594C56.0391 147.203 55.9088 147.817 55.5266 148.437C55.1999 148.968 54.796 149.351 54.3151 149.589C53.8197 149.829 53.2762 149.916 52.6848 149.849C52.0878 149.792 51.4791 149.572 50.8587 149.19C50.2473 148.813 49.786 148.374 49.4749 147.872C49.1548 147.365 48.9863 146.833 48.9692 146.277C48.9522 145.721 49.1025 145.175 49.4203 144.639L50.8499 145.519C50.7003 145.762 50.6165 146.039 50.5984 146.35C50.5803 146.662 50.6528 146.967 50.8159 147.266C50.9735 147.574 51.2366 147.841 51.6053 148.068C51.9054 148.265 52.2101 148.385 52.5194 148.427C52.8286 148.468 53.1188 148.43 53.39 148.312C53.6523 148.188 53.872 147.982 54.0493 147.695C54.2265 147.407 54.3075 147.134 54.2924 146.877C54.2718 146.629 54.1833 146.369 54.0271 146.1C53.8709 145.83 53.6731 145.547 53.4339 145.25C53.1801 144.958 52.9032 144.632 52.6031 144.274C52.2387 143.838 51.9414 143.395 51.7113 142.943C51.4755 142.5 51.3623 142.04 51.3715 141.562C51.3662 141.087 51.5296 140.58 51.8619 140.04C52.1499 139.573 52.5399 139.212 53.0319 138.957C53.5239 138.702 54.0885 138.59 54.7256 138.623C55.3572 138.665 56.0326 138.907 56.7519 139.35Z" fill="#136C4E"/>
<path d="M46.0592 130.966C46.6296 131.531 47.0321 132.13 47.2669 132.764C47.4942 133.405 47.5422 134.032 47.4109 134.645C47.2797 135.257 46.9652 135.815 46.4675 136.318L45.2854 135.148C45.5677 134.863 45.7601 134.534 45.8627 134.16C45.9579 133.793 45.9523 133.416 45.8457 133.028C45.7243 132.641 45.4834 132.269 45.1232 131.912C44.8004 131.593 44.4745 131.374 44.1453 131.256C43.8162 131.138 43.5024 131.11 43.204 131.171C42.8907 131.233 42.6152 131.384 42.3775 131.624C42.1026 131.901 41.9399 132.194 41.8892 132.5C41.8385 132.806 41.8662 133.124 41.9725 133.452C42.0712 133.787 42.2149 134.137 42.4035 134.502C42.592 134.867 42.7919 135.258 43.0031 135.675C43.4106 136.494 43.6121 137.214 43.6079 137.834C43.5886 138.454 43.3227 139.023 42.8102 139.54C42.3719 139.983 41.8917 140.266 41.3696 140.388C40.8326 140.51 40.2836 140.472 39.7225 140.273C39.154 140.082 38.6109 139.73 38.093 139.217C37.5826 138.712 37.2327 138.18 37.0431 137.621C36.8461 137.055 36.8022 136.499 36.9114 135.953C37.0206 135.407 37.2906 134.909 37.7214 134.459L38.9147 135.64C38.7141 135.843 38.5698 136.094 38.4817 136.393C38.3937 136.692 38.3953 137.006 38.4866 137.334C38.5704 137.669 38.7662 137.989 39.0739 138.294C39.3217 138.554 39.5914 138.739 39.8832 138.85C40.175 138.96 40.4664 138.989 40.7573 138.935C41.0408 138.874 41.3013 138.723 41.5391 138.483C41.7768 138.243 41.9174 137.996 41.9609 137.741C41.9969 137.495 41.9694 137.222 41.8783 136.924C41.7871 136.626 41.6585 136.306 41.4925 135.963C41.3115 135.62 41.1154 135.241 40.9042 134.824C40.6477 134.317 40.4585 133.818 40.3365 133.326C40.2071 132.841 40.2009 132.367 40.318 131.903C40.4202 131.44 40.6941 130.983 41.1398 130.532C41.5261 130.142 41.9877 129.878 42.5246 129.741C43.0616 129.604 43.6366 129.624 44.2498 129.8C44.8556 129.983 45.4587 130.372 46.0592 130.966Z" fill="#136C4E"/>
<path d="M37.2975 119.99C37.7094 120.654 37.9523 121.336 38.026 122.036C38.0908 122.741 37.9542 123.422 37.6162 124.079C37.2636 124.733 36.6655 125.321 35.822 125.845L29.9263 129.502L29.0913 128.156L35.0005 124.49C35.5658 124.14 35.974 123.756 36.225 123.339C36.4671 122.928 36.5749 122.501 36.5484 122.057C36.5074 121.611 36.3477 121.163 36.0694 120.714C35.7855 120.257 35.4553 119.915 35.0788 119.688C34.6934 119.468 34.2655 119.379 33.7953 119.422C33.3104 119.462 32.7854 119.657 32.22 120.008L26.3108 123.673L25.4758 122.327L31.3716 118.67C32.2151 118.147 33.0108 117.877 33.7586 117.861C34.4974 117.85 35.1712 118.034 35.7799 118.415C36.3797 118.801 36.8856 119.326 37.2975 119.99Z" fill="#136C4E"/>
<path d="M32.3187 110.823L21.7933 114.31L20.6127 110.746C20.337 109.914 20.2516 109.186 20.3562 108.562C20.4609 107.937 20.7073 107.422 21.0954 107.015C21.4702 106.602 21.9533 106.297 22.5447 106.101C23.106 105.915 23.6705 105.873 24.238 105.974C24.7955 106.079 25.3092 106.354 25.7793 106.799C26.236 107.237 26.6038 107.877 26.8827 108.719L27.5502 110.734L31.8206 109.319L32.3187 110.823ZM30.4905 105.304L26.5614 109.109L26.0135 107.455L29.9077 103.545L30.4905 105.304ZM26.4075 111.112L25.7599 109.158C25.5142 108.416 25.1527 107.929 24.6756 107.698C24.1885 107.47 23.6592 107.451 23.0879 107.64C22.5064 107.833 22.1018 108.156 21.8739 108.61C21.646 109.063 21.6599 109.676 21.9156 110.448L22.5582 112.388L26.4075 111.112Z" fill="#136C4E"/>
<path d="M28.7121 97.6495L17.6707 98.6652L17.0308 91.7091L18.3242 91.5901L18.819 96.9689L22.3522 96.6438L21.901 91.7383L23.1628 91.6222L23.6141 96.5278L27.2735 96.1911L26.7787 90.8124L28.0722 90.6934L28.7121 97.6495Z" fill="#136C4E"/>
<path d="M28.1168 84.0197L17.1544 82.355L17.6681 78.9724C17.8631 77.6882 18.2485 76.6626 18.8243 75.8955C19.4001 75.1285 20.1305 74.6092 21.0155 74.3377C21.8917 74.0542 22.8935 73.9981 24.0211 74.1693C25.1486 74.3405 26.0887 74.6916 26.8412 75.2224C27.5953 75.7428 28.1334 76.4547 28.4555 77.3581C28.7671 78.2599 28.8255 79.3529 28.6304 80.6371L28.1168 84.0197ZM27.0391 82.2539L27.3078 80.4843C27.4616 79.4716 27.4167 78.6423 27.1729 77.9965C26.9292 77.3506 26.5184 76.8557 25.9405 76.5116C25.3537 76.1554 24.6322 75.9124 23.7761 75.7823C22.9096 75.6508 22.1433 75.6679 21.4772 75.8338C20.8128 75.9892 20.2683 76.3391 19.8438 76.8835C19.4194 77.4279 19.1303 78.2064 18.9765 79.2191L18.7077 80.9887L27.0391 82.2539Z" fill="#136C4E"/>
</svg>
