<svg width="221" height="127" viewBox="0 0 221 127" fill="none" xmlns="http://www.w3.org/2000/svg">
<path d="M215.583 81.4099L190.667 56.4441L184.167 61.8714L193.917 71.6407C188.5 77.068 177.667 86.8373 162.5 95.521C164.667 87.9227 164.667 79.239 164.667 72.7261C164.667 65.1279 161.417 57.5296 156 52.1022C150.583 46.6749 143 43.4185 135.417 43.4185C127.833 43.4185 120.25 46.6749 114.833 52.1022C109.417 57.5296 106.167 65.1279 106.167 72.7261C106.167 78.1535 105.083 83.5808 102.917 89.0082C100.75 93.3501 98.5833 97.692 94.25 100.948L86.6667 108.547C58.5 99.8629 35.75 79.239 28.1667 71.6407L37.9167 61.8714L31.4167 56.4441L6.5 81.4099L13 87.9227L21.6667 78.1535C32.5 89.0082 67.1667 120.487 110.5 120.487C153.833 120.487 188.5 87.9227 199.333 78.1535L209.083 87.9227L215.583 81.4099ZM97.5 110.718L100.75 107.461C105.083 103.119 109.417 97.692 111.583 91.1791C113.75 84.6663 114.833 78.1535 114.833 71.6407C114.833 66.2133 117 60.786 121.333 56.4441C125.667 52.1022 130 49.9313 136.5 49.9313C141.917 49.9313 147.333 52.1022 150.583 56.4441C154.917 60.786 157.083 66.2133 157.083 71.6407C157.083 81.4099 154.917 94.4356 152.75 100.948C146.25 104.205 138.667 107.461 130 108.547C136.5 97.692 140.833 84.6663 140.833 71.6407H132.167C132.167 83.5808 128.917 94.4356 123.5 104.205L119.167 110.718C117 110.718 113.75 110.718 111.583 110.718C106.167 111.803 101.833 111.803 97.5 110.718Z" fill="white" fill-opacity="0.15"/>
<path d="M183.083 22.7949V21.7095L174.417 22.7949V23.8804C175.5 29.3078 173.333 35.8206 167.917 39.077L173.333 45.5898C180.917 41.2479 185.25 32.5642 183.083 22.7949Z" fill="white" fill-opacity="0.15"/>
<path d="M97.5 46.6753L102.917 40.1625C98.5833 35.8206 96.4167 30.3932 97.5 23.8804V22.7949L88.8333 21.7095V22.7949C86.6667 32.5642 91 41.2479 97.5 46.6753Z" fill="white" fill-opacity="0.15"/>
<path d="M127.833 27.1366L121.333 8.68359L112.667 10.8545L119.167 29.3075L127.833 27.1366Z" fill="white" fill-opacity="0.15"/>
<path d="M158.167 10.8545L150.583 8.68359L144.083 27.1366L152.75 29.3075L158.167 10.8545Z" fill="white" fill-opacity="0.15"/>
</svg>
