<svg width="20" height="21" viewBox="0 0 20 21" fill="none" xmlns="http://www.w3.org/2000/svg">
<g clip-path="url(#clip0_58_19173)">
<path d="M14.5862 0H5.41381C2.42858 0 0 2.55001 0 5.6845V15.3156C0 18.4499 2.42858 21 5.41381 21H14.5863C17.5714 21 20 18.4499 20 15.3156V5.6845C20 2.55001 17.5714 0 14.5862 0ZM18.8275 15.3156C18.8275 17.7711 16.9249 19.7689 14.5862 19.7689H5.41381C3.0751 19.7689 1.17248 17.7711 1.17248 15.3156V5.6845C1.17248 3.22885 3.0751 1.23111 5.41381 1.23111H14.5863C16.9249 1.23111 18.8275 3.22885 18.8275 5.6845V15.3156Z" fill="white"/>
<path d="M9.99996 4.75781C6.98452 4.75781 4.53137 7.33362 4.53137 10.4998C4.53137 13.666 6.98452 16.2418 9.99996 16.2418C13.0154 16.2418 15.4685 13.666 15.4685 10.4998C15.4685 7.33362 13.0154 4.75781 9.99996 4.75781ZM9.99996 15.0107C7.63119 15.0107 5.70386 12.9872 5.70386 10.4998C5.70386 8.01262 7.63119 5.98892 9.99996 5.98892C12.3689 5.98892 14.2961 8.01262 14.2961 10.4998C14.2961 12.9872 12.3689 15.0107 9.99996 15.0107Z" fill="white"/>
<path d="M15.5994 2.71875C14.7083 2.71875 13.9835 3.47994 13.9835 4.41545C13.9835 5.35111 14.7083 6.11231 15.5994 6.11231C16.4905 6.11231 17.2154 5.35111 17.2154 4.41545C17.2154 3.47978 16.4905 2.71875 15.5994 2.71875ZM15.5994 4.88104C15.3549 4.88104 15.1559 4.67212 15.1559 4.41545C15.1559 4.15862 15.3549 3.94986 15.5994 3.94986C15.844 3.94986 16.0429 4.15862 16.0429 4.41545C16.0429 4.67212 15.844 4.88104 15.5994 4.88104Z" fill="white"/>
</g>
<defs>
<clipPath id="clip0_58_19173">
<rect width="20" height="21" fill="white"/>
</clipPath>
</defs>
</svg>
