<svg width="23" height="23" viewBox="0 0 23 23" fill="none" xmlns="http://www.w3.org/2000/svg">
<g clip-path="url(#clip0_58_19177)">
<path fill-rule="evenodd" clip-rule="evenodd" d="M14.7624 22.0117H16.5312C19.5561 22.0117 22.0117 19.5561 22.0117 16.5312V6.46875C22.0117 3.44389 19.5561 0.988281 16.5312 0.988281H6.46875C3.44389 0.988281 0.988281 3.44389 0.988281 6.46875V16.5312C0.988281 19.5561 3.44389 22.0117 6.46875 22.0117H11.7695C12.0175 22.0117 12.2188 21.8105 12.2188 21.5625C12.2188 21.3145 12.0175 21.1133 11.7695 21.1133H6.46875C3.93983 21.1133 1.88672 19.0602 1.88672 16.5312V6.46875C1.88672 3.93983 3.93983 1.88672 6.46875 1.88672H16.5312C19.0602 1.88672 21.1133 3.93983 21.1133 6.46875V16.5312C21.1133 19.0602 19.0602 21.1133 16.5312 21.1133H14.7624C14.5144 21.1133 14.3132 21.3145 14.3132 21.5625C14.3132 21.8105 14.5144 22.0117 14.7624 22.0117Z" fill="white"/>
<path fill-rule="evenodd" clip-rule="evenodd" d="M14.3155 9.67832V11.3799C14.3155 11.628 14.5171 11.8296 14.7652 11.8296H17.0236L16.7096 13.7999H14.7652C14.5171 13.7999 14.3155 14.0008 14.3155 14.2489V21.5662C14.3155 21.8143 14.5171 22.0158 14.7652 22.0158C15.0127 22.0158 15.2142 21.8143 15.2142 21.5662V14.6986H17.0934C17.3143 14.6986 17.5019 14.5376 17.5371 14.3201L17.9934 11.4504C18.0141 11.3207 17.9768 11.1883 17.8917 11.0885C17.8065 10.9881 17.6815 10.9309 17.5498 10.9309H15.2142V9.5925L14.7652 10.0422L14.7765 10.0216L15.2056 9.57055C15.183 9.1109 15.2488 8.74238 15.5947 8.71178H17.7586C18.0068 8.71178 18.2076 8.51022 18.2076 8.2621V5.60129C18.2076 5.39175 18.0626 5.21015 17.8584 5.16358C16.1422 4.77111 14.1911 4.89484 12.8973 5.6412C11.9534 6.18533 11.3354 7.04411 11.3221 8.25744V10.9309H9.23472C8.9866 10.9309 8.78571 11.1318 8.78571 11.3799V14.2489C8.78571 14.497 8.9866 14.6986 9.23472 14.6986H11.3221V21.5662C11.3221 21.8143 11.5237 22.0158 11.7718 22.0158C12.0193 22.0158 12.2208 21.8143 12.2208 21.5662V14.2489C12.2208 14.0008 12.0199 13.7999 11.7718 13.7999H9.68439V11.8296H11.7718C12.0199 11.8296 12.2208 11.628 12.2208 11.3799V8.26543C12.2335 7.17649 12.9512 6.5053 13.9257 6.15407C14.9116 5.79819 16.1522 5.75827 17.309 5.96781V7.81309H15.5808C15.5714 7.81309 15.5628 7.81309 15.5535 7.81375C14.7286 7.86431 14.255 8.54015 14.3082 9.61512C14.3089 9.63641 14.3115 9.65769 14.3155 9.67832Z" fill="white"/>
</g>
<defs>
<clipPath id="clip0_58_19177">
<rect width="23" height="23" fill="white"/>
</clipPath>
</defs>
</svg>
