<svg width="27" height="27" viewBox="0 0 27 27" fill="none" xmlns="http://www.w3.org/2000/svg">
<path d="M26.7295 7.77553C26.7295 7.68536 26.4591 5.70209 25.6027 4.75552C24.5659 3.62866 23.4391 3.49343 22.8531 3.44832H22.6728C19.0218 3.17787 13.5677 3.13281 13.4775 3.13281C13.4325 3.13281 7.93329 3.17787 4.32726 3.53849H4.19204C3.56091 3.58355 2.43406 3.71877 1.44242 4.84563C0.540901 5.79221 0.270451 7.82059 0.270451 7.91075C0.270451 7.91075 0 10.2096 0 12.5084V14.627C0 16.8807 0.270451 19.1796 0.270451 19.2246C0.270451 19.3148 0.540901 21.2981 1.39731 22.2446C2.34389 23.3264 3.47075 23.4617 4.19198 23.5518C4.32721 23.5518 4.41738 23.5518 4.5526 23.5969C6.62604 23.7772 13.207 23.8673 13.4775 23.8673C13.5225 23.8673 19.0217 23.8673 22.6728 23.4617H22.808C23.4391 23.4166 24.5659 23.2814 25.5576 22.1545C26.4591 21.2079 26.7295 19.1795 26.7295 19.0893C26.7295 19.0893 27 16.7905 27 14.4917V12.3732C27 10.1194 26.7295 7.82059 26.7295 7.77553ZM26.0985 14.5819C26.0985 16.8356 25.828 19.0893 25.828 19.0893C25.7379 19.5852 25.4674 21.0276 24.8815 21.6586C24.1152 22.5601 23.2137 22.6503 22.7178 22.6954H22.5826C18.9766 22.9658 13.5225 22.9658 13.4775 22.9658C13.4324 22.9658 6.67115 22.8757 4.68783 22.6503C4.5526 22.6503 4.41738 22.6053 4.28215 22.6053C3.65108 22.5602 2.74962 22.425 2.02838 21.6136C1.48748 21.0277 1.17197 19.5852 1.12686 19.0894C1.12686 19.0443 0.856409 16.7906 0.856409 14.5819V12.4634C0.856409 10.2096 1.12686 7.95587 1.12686 7.95587C1.17192 7.46002 1.48748 6.01765 2.02838 5.38658C2.83973 4.48507 3.69614 4.3949 4.23704 4.34984H4.37227C7.97829 4.07939 13.4324 4.03433 13.4774 4.03433C13.5225 4.03433 18.9766 4.07939 22.5826 4.34984H22.7629C23.2587 4.3949 24.1602 4.48507 24.9265 5.38658C25.4674 6.01765 25.7378 7.46002 25.828 7.95587C25.873 8.04603 26.0984 10.2998 26.0984 12.4634L26.0985 14.5819Z" fill="white"/>
<path d="M19.1118 13.5451L10.5476 8.54175C10.4124 8.45158 10.2321 8.45158 10.0969 8.54175C9.96163 8.63191 9.87146 8.76714 9.87146 8.94742V18.7287C9.87146 18.909 9.96163 19.0442 10.0969 19.1344C10.187 19.1794 10.2321 19.1794 10.3222 19.1794C10.4124 19.1794 10.4575 19.1794 10.5476 19.1344L19.1119 14.3564C19.2471 14.2663 19.3373 14.131 19.3373 13.9508C19.3373 13.7705 19.2471 13.6352 19.1118 13.5451ZM10.773 17.9624V9.71366L17.985 13.9507L10.773 17.9624Z" fill="white"/>
</svg>
