<svg width="140" height="140" viewBox="0 0 140 140" fill="none" xmlns="http://www.w3.org/2000/svg">
<rect x="6.11959e-06" y="140" width="140" height="140" rx="70" transform="rotate(-90 6.11959e-06 140)" fill="#CFD35A"/>
<path d="M22.9839 55.2148L15.9754 52.8515L15.8899 54.5247L14.9705 54.2147L14.7792 51.9429L15.0369 51.1787L23.3945 53.9969L22.9839 55.2148Z" fill="#136C4E" fill-opacity="0.8"/>
<path d="M25.8978 47.4819C25.5716 48.1825 25.1202 48.7043 24.5435 49.0474C23.9592 49.3869 23.2948 49.5501 22.5504 49.5371C21.8018 49.5129 21.0164 49.3094 20.1939 48.9265C19.3715 48.5435 18.7139 48.0752 18.2212 47.5215C17.7244 46.9567 17.4216 46.3432 17.313 45.681C17.1967 45.0153 17.3016 44.3322 17.6278 43.6316C17.954 42.931 18.4074 42.4148 18.9882 42.0829C19.5613 41.7474 20.2221 41.5918 20.9707 41.616C21.7151 41.629 22.4986 41.827 23.321 42.2099C24.1434 42.5928 24.803 43.0667 25.2999 43.6316C25.7926 44.1853 26.0989 44.7912 26.2187 45.4493C26.3309 46.1038 26.224 46.7813 25.8978 47.4819ZM24.8812 47.0086C25.0762 46.5898 25.1242 46.1581 25.0254 45.7137C24.9266 45.2692 24.6892 44.8437 24.3133 44.4371C23.9374 44.0304 23.4258 43.6764 22.7785 43.375C22.1236 43.0701 21.5234 42.9065 20.9779 42.8842C20.4247 42.8583 19.9501 42.9523 19.5539 43.1663C19.1502 43.3768 18.8508 43.6914 18.6558 44.1102C18.4573 44.5367 18.4056 44.9759 18.5009 45.428C18.5922 45.8689 18.8257 46.2927 19.2016 46.6993C19.5734 47.0948 20.0868 47.445 20.7417 47.7499C21.389 48.0513 21.9874 48.2187 22.537 48.2522C23.0902 48.2781 23.5687 48.1858 23.9724 47.9754C24.3797 47.7573 24.6826 47.4351 24.8812 47.0086Z" fill="#136C4E" fill-opacity="0.8"/>
<path d="M30.3427 40.1678C29.882 40.7883 29.3346 41.2083 28.7006 41.4281C28.0599 41.6428 27.3762 41.6687 26.6497 41.5058C25.9214 41.3312 25.1931 40.9734 24.4648 40.4326C23.7364 39.8917 23.1868 39.3004 22.8158 38.6587C22.4431 38.0053 22.2703 37.3433 22.2974 36.6729C22.3177 35.9974 22.5582 35.3495 23.019 34.729C23.4797 34.1086 24.028 33.6944 24.6637 33.4864C25.2927 33.2734 25.9713 33.2543 26.6996 33.4289C27.4262 33.5918 28.1536 33.9437 28.8819 34.4845C29.6103 35.0254 30.1608 35.6226 30.5335 36.276C30.9044 36.9177 31.0823 37.5729 31.0669 38.2416C31.0449 38.9053 30.8035 39.5474 30.3427 40.1678ZM29.4424 39.4992C29.7179 39.1283 29.852 38.7153 29.8448 38.26C29.8376 37.8048 29.6909 37.3401 29.4048 36.866C29.1186 36.3919 28.6889 35.942 28.1157 35.5163C27.5357 35.0856 26.9808 34.8043 26.451 34.6724C25.9144 34.5355 25.4305 34.532 24.9994 34.6617C24.5615 34.7864 24.2048 35.0342 23.9294 35.4051C23.6489 35.7828 23.5098 36.2026 23.512 36.6646C23.5124 37.1148 23.6558 37.577 23.9419 38.0511C24.2264 38.5134 24.6586 38.9599 25.2385 39.3906C25.8117 39.8163 26.3641 40.101 26.8957 40.2446C27.4323 40.3815 27.9195 40.3876 28.3574 40.2629C28.8003 40.1315 29.162 39.8769 29.4424 39.4992Z" fill="#136C4E" fill-opacity="0.8"/>
<path d="M36.7979 33.2786L34.9889 23.2634L35.9421 22.4588L37.7511 32.474L36.7979 33.2786ZM41.3726 29.6149C41.0709 29.8695 40.7444 30.0297 40.3931 30.0954C40.0419 30.1611 39.6927 30.1316 39.3456 30.0068C38.993 29.8757 38.6759 29.6433 38.3941 29.3095C38.1015 28.9629 37.9229 28.608 37.8582 28.2449C37.7935 27.8817 37.8231 27.5325 37.9468 27.1973C38.0705 26.862 38.28 26.5697 38.5752 26.3205C38.8834 26.0604 39.2098 25.9002 39.5547 25.84C39.906 25.7743 40.252 25.8065 40.5927 25.9367C40.9398 26.0614 41.2596 26.297 41.5522 26.6437C41.834 26.9774 42.0099 27.3291 42.08 27.6986C42.1511 28.0563 42.1248 28.4028 42.0011 28.7381C41.8774 29.0734 41.6679 29.3656 41.3726 29.6149ZM40.7615 28.9105C40.9028 28.7913 41.0013 28.6476 41.0573 28.4795C41.1196 28.3059 41.1292 28.122 41.086 27.9276C41.0439 27.7213 40.9334 27.5123 40.7546 27.3005C40.5758 27.0887 40.3942 26.9452 40.2098 26.87C40.02 26.7883 39.8343 26.7637 39.6527 26.796C39.4776 26.823 39.3162 26.8987 39.1686 27.0234C39.0338 27.1372 38.9352 27.2808 38.8728 27.4544C38.8105 27.6279 38.8004 27.8178 38.8426 28.0241C38.8857 28.2185 38.9967 28.4216 39.1755 28.6334C39.3543 28.8452 39.5386 28.9919 39.7285 29.0735C39.9193 29.1433 40.1022 29.1647 40.2774 29.1378C40.4589 29.1055 40.6203 29.0297 40.7615 28.9105ZM34.2306 29.3778C33.9354 29.627 33.6121 29.7845 33.2608 29.8502C32.9095 29.9159 32.5603 29.8864 32.2132 29.7616C31.8607 29.6305 31.5409 29.3948 31.2537 29.0546C30.9665 28.7144 30.7906 28.3628 30.7259 27.9997C30.6612 27.6365 30.6907 27.2873 30.8144 26.9521C30.9446 26.6114 31.1573 26.3164 31.4525 26.0672C31.7478 25.8179 32.0711 25.6605 32.4224 25.5948C32.7737 25.5291 33.1196 25.5613 33.4603 25.6915C33.8074 25.8162 34.1246 26.0486 34.4118 26.3888C34.6989 26.729 34.8776 27.0839 34.9477 27.4534C35.0188 27.8111 34.9893 28.1603 34.8591 28.501C34.7354 28.8363 34.5259 29.1286 34.2306 29.3778ZM33.6292 28.6653C33.7768 28.5407 33.8786 28.3943 33.9346 28.2262C33.9969 28.0526 34.0065 27.8686 33.9633 27.6742C33.9147 27.4734 33.801 27.2671 33.6222 27.0553C33.4434 26.8435 33.2591 26.6967 33.0693 26.6151C32.8795 26.5335 32.6938 26.5089 32.5123 26.5412C32.3371 26.5681 32.1789 26.6412 32.0377 26.7604C31.8965 26.8796 31.7915 27.0287 31.7227 27.2077C31.6604 27.3812 31.6535 27.5684 31.7021 27.7692C31.7507 27.97 31.8644 28.1764 32.0432 28.3882C32.2166 28.5936 32.3982 28.7371 32.588 28.8187C32.7778 28.9003 32.9635 28.925 33.1451 28.8926C33.3266 28.8603 33.488 28.7845 33.6292 28.6653Z" fill="#136C4E" fill-opacity="0.8"/>
<path d="M49.4617 26.49L46.2242 18.2857L49.0136 17.1849C49.67 16.9259 50.2523 16.8226 50.7606 16.8749C51.2688 16.9271 51.6985 17.1007 52.0497 17.3956C52.4056 17.6796 52.676 18.056 52.861 18.5248C53.0399 18.978 53.1017 19.4322 53.0465 19.8874C52.9914 20.3427 52.7976 20.7668 52.465 21.1599C52.1294 21.5452 51.6296 21.8689 50.9654 22.131L49.348 22.7692L50.6337 26.0275L49.4617 26.49ZM48.9641 21.7964L50.5346 21.1767C51.1597 20.93 51.5472 20.6191 51.6972 20.2438C51.8549 19.8655 51.8444 19.4498 51.6655 18.9966C51.4775 18.5199 51.1997 18.2051 50.8323 18.0521C50.4696 17.8882 49.9757 17.9296 49.3506 18.1762L47.7801 18.796L48.9641 21.7964Z" fill="#136C4E" fill-opacity="0.8"/>
<path d="M59.9238 22.9998L58.626 14.2758L61.5797 13.8364C62.2693 13.7338 62.8516 13.7661 63.3266 13.9332C63.8015 14.1004 64.1719 14.3637 64.4377 14.7233C64.7106 15.0734 64.8835 15.4935 64.9564 15.9837C65.0256 16.449 64.9819 16.8971 64.8252 17.3281C64.6672 17.7507 64.3819 18.1159 63.969 18.4236C63.5633 18.7217 63.0115 18.9227 62.3135 19.0265L60.6435 19.2749L61.17 22.8144L59.9238 22.9998ZM64.5101 22.3175L62.0516 18.7215L63.4225 18.5176L65.9558 22.1025L64.5101 22.3175ZM60.5026 18.3278L62.1228 18.0867C62.7376 17.9953 63.1682 17.7784 63.4145 17.436C63.6596 17.0853 63.7469 16.6732 63.6764 16.1996C63.6047 15.7177 63.4066 15.3565 63.0821 15.1161C62.7576 14.8756 62.2755 14.8029 61.6357 14.8981L60.028 15.1373L60.5026 18.3278Z" fill="#136C4E" fill-opacity="0.8"/>
<path d="M70.9052 21.9658L71.6145 13.1744L77.1531 13.6212L77.07 14.6511L72.7873 14.3056L72.5604 17.1188L76.4663 17.4339L76.3852 18.4387L72.4793 18.1236L72.2442 21.0373L76.5269 21.3828L76.4438 22.4127L70.9052 21.9658Z" fill="#136C4E" fill-opacity="0.8"/>
<path d="M81.8549 23.3057L84.8323 15.0034L86.2318 15.5053L86.991 22.1224L91.7706 17.4916L93.182 17.9978L90.2046 26.3001L89.0186 25.8747L91.2473 19.6599L86.8888 23.8259L85.9755 23.4984L85.2655 17.528L83.0409 23.731L81.8549 23.3057Z" fill="#136C4E" fill-opacity="0.8"/>
<path d="M95.1402 29.1302L99.8655 21.6827L100.929 22.3577L96.2041 29.8052L95.1402 29.1302Z" fill="#136C4E" fill-opacity="0.8"/>
<path d="M103.039 35.3697C102.587 34.9424 102.262 34.4671 102.064 33.9437C101.871 33.4143 101.838 32.8626 101.965 32.2887C102.103 31.7144 102.444 31.1406 102.987 30.5671L106.78 26.5589L107.696 27.4251L103.893 31.4424C103.529 31.8267 103.293 32.2046 103.185 32.576C103.082 32.9413 103.085 33.2917 103.196 33.6274C103.318 33.9627 103.531 34.2748 103.836 34.5635C104.148 34.8579 104.468 35.0512 104.797 35.1431C105.138 35.2348 105.485 35.2163 105.838 35.0878C106.203 34.9589 106.568 34.7023 106.931 34.3179L110.734 30.3006L111.649 31.1668L107.855 35.1749C107.312 35.7484 106.755 36.1173 106.183 36.2815C105.617 36.4397 105.061 36.4342 104.516 36.265C103.983 36.0954 103.49 35.797 103.039 35.3697Z" fill="#136C4E" fill-opacity="0.8"/>
<path d="M108.943 41.4589L116.499 36.9097L117.266 38.1835L113.67 43.7899L120.301 43.2246L121.075 44.5091L113.518 49.0584L112.868 47.9789L118.525 44.5735L112.514 45.045L112.013 44.2138L115.239 39.1395L109.593 42.5384L108.943 41.4589Z" fill="#136C4E" fill-opacity="0.8"/>
<path d="M116.948 67.2157L121.372 63.6867L121.527 65.1274L117.105 68.6815L116.948 67.2157ZM117.81 64.8549C117.72 64.0197 117.829 63.2645 118.137 62.5894C118.453 61.9134 118.93 61.3595 119.568 60.9277C120.214 60.4951 120.988 60.2303 121.89 60.1335C122.784 60.0375 123.588 60.1328 124.303 60.4193C125.027 60.7049 125.615 61.1444 126.067 61.7379C126.519 62.3314 126.79 63.0458 126.88 63.881C126.971 64.7246 126.858 65.4843 126.542 66.1603C126.226 66.8363 125.744 67.3865 125.097 67.8108C124.458 68.2342 123.692 68.4939 122.798 68.5899C121.896 68.6867 121.084 68.5965 120.361 68.3193C119.647 68.0411 119.064 67.6053 118.612 67.0118C118.168 66.4174 117.9 65.6984 117.81 64.8549ZM118.925 64.7351C118.988 65.3281 119.182 65.8312 119.505 66.2442C119.828 66.6573 120.257 66.9576 120.793 67.1451C121.328 67.3326 121.951 67.3882 122.661 67.312C123.371 67.2358 123.968 67.0492 124.451 66.7523C124.935 66.4554 125.286 66.0713 125.506 65.5999C125.734 65.1277 125.816 64.5951 125.753 64.0021C125.689 63.4091 125.495 62.906 125.172 62.493C124.858 62.0874 124.433 61.7866 123.897 61.5908C123.361 61.4033 122.739 61.3476 122.029 61.4238C121.319 61.5001 120.722 61.6866 120.239 61.9835C119.756 62.2888 119.4 62.6734 119.171 63.1373C118.943 63.6095 118.861 64.1422 118.925 64.7351Z" fill="#136C4E" fill-opacity="0.8"/>
<path d="M117.648 77.9007C117.745 77.2867 117.953 76.7499 118.273 76.2901C118.6 75.8317 119.037 75.4925 119.582 75.2725C120.134 75.0622 120.8 75.0187 121.58 75.1421L127.031 76.0043L126.834 77.2488L121.37 76.3846C120.848 76.3019 120.402 76.3208 120.035 76.4413C119.675 76.563 119.388 76.7642 119.174 77.045C118.966 77.3353 118.83 77.6879 118.764 78.1028C118.697 78.5259 118.719 78.8993 118.829 79.2229C118.947 79.5561 119.158 79.832 119.464 80.0504C119.776 80.2784 120.194 80.4338 120.717 80.5165L126.18 81.3806L125.983 82.6252L120.532 81.763C119.753 81.6396 119.133 81.3885 118.674 81.0098C118.224 80.6324 117.914 80.1709 117.745 79.6255C117.583 79.0896 117.551 78.5147 117.648 77.9007Z" fill="#136C4E" fill-opacity="0.8"/>
<path d="M116.106 85.66L122.927 92.1213L122.384 93.3829L113.003 92.8703L113.531 91.6435L121.269 92.1485L115.583 86.8752L116.106 85.66ZM117.53 87.8643L118.317 88.5869L116.678 92.3946L115.613 92.3201L117.53 87.8643Z" fill="#136C4E" fill-opacity="0.8"/>
<path d="M110.303 97.2864L117.368 102.566L116.614 103.575L110.346 98.8915L107.932 102.121L107.135 101.526L110.303 97.2864Z" fill="#136C4E" fill-opacity="0.8"/>
<path d="M103.617 105.196L109.635 111.645L108.713 112.505L102.696 106.056L103.617 105.196Z" fill="#136C4E" fill-opacity="0.8"/>
<path d="M96.6662 110.764L100.838 117.339L103.051 115.935L103.604 116.808L98.1252 120.284L97.5717 119.412L99.774 118.014L95.6023 111.439L96.6662 110.764Z" fill="#136C4E" fill-opacity="0.8"/>
<path d="M86.7021 115.794L87.7859 118.885L92.355 123.158L91.0114 123.629L87.4019 120.075L87.6159 120L87.0281 125.026L85.6964 125.493L86.5969 119.302L85.513 116.211L86.7021 115.794Z" fill="#136C4E" fill-opacity="0.8"/>
<path d="M71.9112 118.897L68.2548 127.552L66.883 127.487L64.0704 118.522L65.4044 118.586L67.6475 126.009L70.5897 118.834L71.9112 118.897ZM70.347 121.005L69.9464 121.995L65.8057 121.796L65.5016 120.773L70.347 121.005Z" fill="#136C4E" fill-opacity="0.8"/>
<path d="M56.2654 116.595C56.8852 116.78 57.396 117.051 57.7979 117.407C58.1974 117.772 58.4658 118.194 58.6031 118.674C58.7405 119.153 58.7286 119.662 58.5675 120.202L57.2999 119.823C57.3832 119.515 57.3949 119.211 57.335 118.913C57.2647 118.62 57.1195 118.358 56.8996 118.125C56.6692 117.899 56.3569 117.726 55.9625 117.609C55.6244 117.508 55.3179 117.477 55.0427 117.518C54.7596 117.556 54.5248 117.653 54.3383 117.807C54.1494 117.97 54.0165 118.18 53.9395 118.438C53.853 118.727 53.8493 118.989 53.9284 119.223C53.9995 119.455 54.1337 119.666 54.331 119.857C54.5179 120.053 54.7458 120.243 55.0148 120.429C55.2757 120.612 55.5583 120.811 55.8627 121.024C56.4715 121.451 56.8891 121.887 57.1157 122.332C57.3423 122.777 57.3727 123.277 57.2068 123.832C57.0649 124.307 56.8296 124.684 56.5009 124.963C56.1698 125.249 55.7741 125.429 55.314 125.502C54.8434 125.581 54.3304 125.537 53.7751 125.371C53.2278 125.208 52.7789 124.964 52.4286 124.64C52.0782 124.316 51.8392 123.943 51.7116 123.519C51.584 123.095 51.5911 122.646 51.7329 122.171L53.0127 122.553C52.9477 122.77 52.9404 123 52.9905 123.243C53.0407 123.486 53.1592 123.706 53.3461 123.902C53.5306 124.106 53.7879 124.257 54.1178 124.356C54.3891 124.446 54.6478 124.475 54.894 124.443C55.1401 124.411 55.3512 124.321 55.5272 124.172C55.7033 124.023 55.8298 123.82 55.9067 123.562C55.9836 123.305 55.9938 123.08 55.9373 122.887C55.8703 122.701 55.749 122.52 55.5734 122.345C55.3978 122.17 55.1876 121.993 54.9428 121.815C54.6875 121.642 54.4077 121.449 54.1033 121.235C53.7257 120.973 53.4059 120.694 53.1441 120.396C52.8718 120.104 52.69 119.774 52.5986 119.405C52.4968 119.041 52.5181 118.618 52.6623 118.135C52.7874 117.717 53.0126 117.359 53.3381 117.061C53.6636 116.764 54.0745 116.562 54.5708 116.456C55.0647 116.359 55.6296 116.405 56.2654 116.595Z" fill="#136C4E" fill-opacity="0.8"/>
<path d="M46.173 112.282C46.7348 112.603 47.1711 112.982 47.4818 113.421C47.7885 113.866 47.9544 114.338 47.9798 114.836C48.0051 115.334 47.8784 115.828 47.5995 116.317L46.4503 115.661C46.6012 115.38 46.6812 115.087 46.6904 114.783C46.6881 114.481 46.6061 114.193 46.4444 113.917C46.2713 113.644 46.006 113.406 45.6485 113.202C45.342 113.027 45.0502 112.928 44.7731 112.905C44.4886 112.878 44.2381 112.919 44.0214 113.028C43.8006 113.143 43.6236 113.318 43.4904 113.552C43.3406 113.814 43.2777 114.069 43.3019 114.314C43.3187 114.556 43.4017 114.792 43.5508 115.022C43.6885 115.255 43.8674 115.493 44.0874 115.734C44.3001 115.972 44.5305 116.229 44.7787 116.506C45.275 117.06 45.5832 117.579 45.7034 118.064C45.8235 118.548 45.74 119.042 45.4528 119.545C45.2072 119.976 44.8927 120.29 44.5094 120.487C44.122 120.691 43.6959 120.777 43.2312 120.744C42.755 120.714 42.2653 120.556 41.7618 120.268C41.2657 119.985 40.8836 119.646 40.6156 119.252C40.3475 118.857 40.1993 118.439 40.1709 117.997C40.1424 117.555 40.251 117.119 40.4966 116.689L41.6567 117.351C41.5443 117.548 41.4851 117.77 41.479 118.018C41.4729 118.266 41.5387 118.507 41.6764 118.74C41.8099 118.98 42.0262 119.186 42.3254 119.357C42.5693 119.506 42.8147 119.592 43.0617 119.617C43.3086 119.642 43.5347 119.602 43.7399 119.496C43.945 119.391 44.1142 119.222 44.2474 118.988C44.3806 118.755 44.4414 118.538 44.4298 118.338C44.4068 118.141 44.3295 117.937 44.1981 117.727C44.0667 117.517 43.9019 117.297 43.7038 117.068C43.4942 116.842 43.2654 116.59 43.0172 116.313C42.7086 115.973 42.4604 115.628 42.2726 115.279C42.0734 114.934 41.971 114.571 41.9655 114.19C41.9486 113.813 42.065 113.406 42.3148 112.968C42.5312 112.589 42.8316 112.291 43.2159 112.075C43.6002 111.859 44.0461 111.756 44.5535 111.765C45.0568 111.781 45.5966 111.953 46.173 112.282Z" fill="#136C4E" fill-opacity="0.8"/>
<path d="M37.0659 105.563C37.5191 105.989 37.8461 106.463 38.0469 106.985C38.2419 107.514 38.2772 108.066 38.1527 108.64C38.0164 109.215 37.678 109.79 37.1376 110.366L33.3606 114.39L32.4419 113.527L36.2276 109.494C36.5897 109.108 36.8244 108.73 36.9315 108.358C37.0328 107.992 37.0277 107.642 36.916 107.306C36.7925 106.972 36.5777 106.66 36.2715 106.373C35.9591 106.08 35.6381 105.888 35.3084 105.797C34.9668 105.707 34.6198 105.727 34.2673 105.857C33.903 105.987 33.5397 106.245 33.1776 106.631L29.3919 110.664L28.4732 109.802L32.2502 105.778C32.7906 105.202 33.3464 104.831 33.9176 104.665C34.483 104.504 35.0388 104.507 35.5848 104.674C36.119 104.842 36.6127 105.138 37.0659 105.563Z" fill="#136C4E" fill-opacity="0.8"/>
<path d="M31.236 99.4048L23.8667 104.251L22.2259 101.756C21.8428 101.173 21.6272 100.632 21.5791 100.13C21.531 99.6292 21.6142 99.1824 21.8287 98.79C22.0316 98.3952 22.34 98.0617 22.7541 97.7894C23.1471 97.5309 23.5721 97.3821 24.029 97.3431C24.4788 97.3086 24.9302 97.414 25.3829 97.6591C25.8241 97.9019 26.2385 98.318 26.6262 98.9076L27.5539 100.318L30.5437 98.3521L31.236 99.4048ZM28.6883 95.5307L26.4596 99.2734L25.6981 98.1154L27.8852 94.3095L28.6883 95.5307ZM26.7538 100.844L25.8538 99.4758C25.5122 98.9565 25.1343 98.657 24.7201 98.5776C24.2989 98.5027 23.8883 98.5968 23.4882 98.8599C23.0812 99.1276 22.8368 99.4592 22.7551 99.8547C22.6734 100.25 22.8102 100.718 23.1656 101.259L24.0587 102.617L26.7538 100.844Z" fill="#136C4E" fill-opacity="0.8"/>
<path d="M25.6803 89.8769L17.4058 92.9306L15.482 87.7176L16.4513 87.3599L17.9388 91.3908L20.5867 90.4136L19.23 86.7374L20.1757 86.3884L21.5323 90.0646L24.2748 89.0526L22.7872 85.0217L23.7565 84.664L25.6803 89.8769Z" fill="#136C4E" fill-opacity="0.8"/>
<path d="M22.3793 79.3543L13.6137 80.3321L13.3231 77.7275C13.2095 76.709 13.2954 75.85 13.5808 75.1504C13.8653 74.4425 14.3196 73.8932 14.9437 73.5024C15.5585 73.1042 16.3167 72.8548 17.2184 72.7542C18.12 72.6536 18.9145 72.7298 19.602 72.9827C20.2885 73.2273 20.8486 73.6635 21.282 74.2913C21.7062 74.9117 21.9751 75.7312 22.0887 76.7496L22.3793 79.3543ZM21.1877 78.2194L21.0425 76.9171C20.9531 76.1156 20.7482 75.4919 20.428 75.0459C20.1078 74.5998 19.6902 74.3041 19.1753 74.1587C18.6512 74.0058 18.0468 73.9676 17.3622 74.044C16.6693 74.1213 16.0841 74.2922 15.6065 74.5568C15.1279 74.813 14.7816 75.194 14.5676 75.6996C14.3535 76.2053 14.2912 76.8588 14.3806 77.6602L14.5259 78.9626L21.1877 78.2194Z" fill="#136C4E" fill-opacity="0.8"/>
</svg>
